<?xml version="1.0" encoding="utf-8"?>
<!-- Generator: Adobe Illustrator 28.0.0, SVG Export Plug-In . SVG Version: 6.00 Build 0)  -->
<svg version="1.1" xmlns="http://www.w3.org/2000/svg" xmlns:xlink="http://www.w3.org/1999/xlink" x="0px" y="0px"
	 viewBox="0 0 693 419" style="enable-background:new 0 0 693 419;" xml:space="preserve">
<style type="text/css">
	.st0{fill:#1C1E20;}
</style>
<g id="Layer_1">
	<path class="st0" d="M554.8,97.8c-27.2,27.1-49.4,49.4-49.4,49.5c22.3,8.9,39.6,30.5,42,54.6c3.8,29.2-14.3,59.2-42,69.5
		c-8.6,3.6-18.1,4.9-27.2,5.7c-4.9,0-84.1,0.2-102.9,0.2C269.7,382.9,239,413.6,239,413.7c0.4,0.1,1.9,0.4,2.2,0.2
		c0-0.1,0.4-0.1,0.9,0c-4.5,0,211.6,0.1,207.2-0.1c76.6,2.5,143.2-18.1,192-80.2c68.6-87.7,52-216.8-36.2-284.6
		C603.5,47.6,595.1,58.1,554.8,97.8L554.8,97.8z"/>
</g>
<g id="Layer_2">
	<path class="st0" d="M219.5,5.1c-39.3,1-79.9,9.8-113.7,30.8C-14.9,109.3-25.8,280.3,84.7,368.3c0.3,0.1,2.3,1.8,2.9,2.2
		c76.6-76.6,98.9-98.9,98.9-99c-67.3-28.9-50.7-123.2,22-129.3c8.2-1,85.5-0.5,108-0.7C422.1,35.9,452.7,5.2,452.7,5.1
		C461.2,4.9,197.5,5.1,219.5,5.1L219.5,5.1z"/>
</g>
</svg>
