<svg version="1.2" xmlns="http://www.w3.org/2000/svg" viewBox="0 0 912 540" width="912" height="540"><style>.a{fill:#1c1e20}.b{fill:#0f0}</style><path class="a" d="m211.7 36.1c-39.3 1-80 9.8-113.8 30.8-120.8 73.4-131.7 244.4-21.1 332.4 0.3 0.1 2.3 1.8 2.9 2.2 76.7-76.6 99-98.9 99-99-67.4-28.9-50.8-123.2 22-129.3 8.2-1 85.6-0.5 108.1-0.7 105.8-105.6 136.4-136.3 136.4-136.4 8.5-0.2-255.5 0-233.5 0z"/><path class="a" d="m782.7 188.8c-27.3 27.1-49.5 49.4-49.5 49.5 22.3 8.9 39.6 30.5 42.1 54.6 3.8 29.2-14.4 59.2-42.1 69.5-8.6 3.6-18.1 4.9-27.2 5.7-4.9 0-84.2 0.2-103 0.2-105.8 105.6-136.5 136.3-136.5 136.4 0.4 0.1 1.9 0.4 2.2 0.2 0-0.1 0.4-0.1 0.9 0-4.5 0 211.8 0.1 207.4-0.1 76.7 2.5 143.4-18.1 192.3-80.2 68.6-87.7 52-216.8-36.3-284.6-1.6-1.4-10 9.1-50.3 48.8z"/><path class="a" d="m334.7 388q-7.3 7.3-16.8 9.9-9.4 2.5-19 0.1-9.5-2.5-17.1-10-7.6-7.7-10-17.1-2.4-9.5 0.2-18.9 2.5-9.4 9.9-16.8 7.5-7.4 16.8-9.8 9.4-2.7 18.8-0.1 9.5 2.3 17.1 9.9 7.7 7.7 10.1 17.2 2.4 9.5-0.1 19-2.6 9.3-9.9 16.6zm-9.8-9.8q4.5-4.5 5.8-10.1 1.3-5.6-0.5-11.3-1.7-5.9-6.5-10.6-4.8-4.8-10.6-6.5-5.7-1.7-11.3-0.4-5.6 1.3-10.1 5.7-4.4 4.4-5.8 10.1-1.3 5.6 0.4 11.4 1.8 5.7 6.5 10.5 4.8 4.7 10.6 6.6 5.8 1.7 11.4 0.4 5.7-1.4 10.1-5.8zm70.5-50.8q-7.6 7.6-17 10-9.3 2.2-18.7-0.3-9.4-2.6-17-10.2-7.4-7.4-10-16.8-2.7-9.3-0.1-18.5 2.4-9.4 10-16.9 5.1-5.2 11.5-7.8 6.2-2.7 12.7-2.8 6.5-0.2 12.3 2.5l-5 13.5q-5.5-2.3-11.4-1.1-5.8 1-10.3 5.5-4.3 4.3-5.6 9.9-1.3 5.4 0.5 11.2 1.8 5.7 6.6 10.4 4.7 4.8 10.5 6.6 5.7 1.8 11.2 0.6 5.6-1.3 9.9-5.6 4.6-4.6 5.6-10.3 1.1-5.8-1.3-11.5l13.7-4.9q2.5 5.5 2.4 12.1-0.1 6.5-2.7 12.8-2.6 6.4-7.8 11.6zm50.6-50.6q-5.7 5.7-12.5 7.5-6.9 1.7-13.9-0.5-7.1-2.3-13.1-8.4l-31.2-31.2 10.5-10.5 30.3 30.2q3.5 3.5 7.5 4.7 4 1.2 8 0.2 3.9-1.1 7.2-4.4 3.4-3.4 4.4-7.4 1-4-0.3-8.1-1.2-4.2-4.8-7.8l-29.9-29.8 10.5-10.5 50.6 50.5-10 10-9.9-9.9 2.4 0.2q2.9 6.5 1.3 13.1-1.6 6.6-7.1 12.1zm46.2-48.3l-10.6 10.5-70.7-70.6 10.5-10.6zm31.5-29.2q-5.7 5.7-12.5 7.5-6.9 1.6-13.9-0.5-7-2.3-13.1-8.4l-31.2-31.2 10.5-10.5 30.3 30.2q3.5 3.5 7.5 4.7 4 1.2 8 0.2 3.9-1.1 7.2-4.4 3.4-3.4 4.4-7.4 1-4-0.3-8.1-1.2-4.2-4.8-7.9l-29.8-29.7 10.4-10.5 50.6 50.5-10 10-9.9-9.9 2.4 0.2q2.9 6.4 1.3 13.1-1.6 6.6-7.1 12.1zm55.4-55.4q-7.7 7.8-17.4 9.8-9.7 2-18.5-2.1l4.3-11.9q6.4 2.2 12.5 1.2 6.1-1.2 10.5-5.5 3.8-3.8 4.4-7.8 0.7-4-2.2-6.9-1.9-1.9-4-2-2.3-0.1-4.6 0.7-2.3 0.7-4.2 2l-10.2 5.7q-8.4 4.6-15.4 4.2-7-0.7-12.1-5.7-4.6-4.6-5.6-10.3-1.1-5.8 1.1-11.8 2.3-5.9 7.4-11.1 6.9-6.9 15.8-8.8 8.8-2.1 17.1 1.7l-4.3 12q-5.1-2.2-10.6-1-5.3 1-9.3 5-3.5 3.4-3.8 7.2-0.5 3.6 2.1 6.2 1.8 1.8 3.9 2.1 2.1 0.2 4.3-0.6 2.2-0.8 4.3-1.9l10.6-5.8q8-4.5 15.2-4 7.1 0.3 12.4 5.6 4.5 4.4 5.5 10.3 1 5.7-1.2 11.9-2.4 6-8 11.6z"/><path class="a" d="m575.9 152q7.2-7.3 16.8-9.9 9.4-2.5 18.9-0.1 9.6 2.4 17.1 10 7.7 7.7 10 17.1 2.5 9.5-0.1 18.8-2.6 9.5-9.9 16.8-7.5 7.5-16.9 9.9-9.3 2.6-18.7 0.1-9.5-2.3-17.1-10-7.7-7.6-10.1-17.1-2.5-9.6 0.1-19 2.6-9.3 9.9-16.6zm9.8 9.8q-4.5 4.5-5.8 10.1-1.3 5.6 0.4 11.3 1.8 5.9 6.6 10.6 4.8 4.8 10.5 6.5 5.7 1.7 11.4 0.4 5.6-1.3 10-5.8 4.4-4.3 5.8-10 1.3-5.6-0.3-11.4-1.8-5.7-6.6-10.5-4.7-4.7-10.5-6.6-5.8-1.7-11.4-0.4-5.7 1.4-10.1 5.8zm-70.5 50.8q7.6-7.6 16.9-10 9.4-2.2 18.8 0.3 9.4 2.6 16.9 10.1 7.5 7.5 10.1 16.8 2.6 9.4 0.1 18.6-2.4 9.4-10 16.9-5.1 5.1-11.5 7.8-6.2 2.7-12.7 2.8-6.5 0.1-12.3-2.5l4.9-13.5q5.5 2.3 11.4 1.1 5.9-1 10.4-5.5 4.3-4.3 5.6-9.9 1.3-5.4-0.6-11.2-1.7-5.7-6.5-10.4-4.8-4.8-10.6-6.7-5.7-1.7-11.2-0.5-5.6 1.3-9.9 5.6-4.5 4.6-5.6 10.2-1 5.9 1.3 11.6l-13.6 4.9q-2.5-5.5-2.4-12.2 0.1-6.4 2.7-12.7 2.6-6.4 7.8-11.6zm-50.6 50.6q5.7-5.7 12.5-7.5 6.9-1.7 13.9 0.5 7 2.3 13.1 8.4l31.2 31.1-10.6 10.6-30.2-30.3q-3.5-3.4-7.5-4.6-4-1.2-8-0.2-4 1.1-7.2 4.4-3.4 3.3-4.4 7.4-1.1 4 0.3 8.1 1.2 4.2 4.8 7.8l29.8 29.8-10.4 10.4-50.6-50.4 10-10 9.9 9.9-2.4-0.2q-2.9-6.5-1.3-13.1 1.6-6.6 7.1-12.1zm-46.2 48.3l10.6-10.5 70.7 70.6-10.6 10.6zm-31.4 29.2q5.7-5.7 12.5-7.5 6.9-1.7 13.9 0.5 7 2.3 13.1 8.4l31.2 31.2-10.6 10.5-30.2-30.2q-3.5-3.5-7.5-4.7-4-1.2-8.1-0.2-3.9 1.1-7.1 4.4-3.4 3.4-4.4 7.4-1.1 4 0.2 8.1 1.3 4.2 4.9 7.8l29.8 29.8-10.5 10.5-50.5-50.5 10-10 9.9 9.9-2.4-0.2q-2.9-6.4-1.3-13.1 1.5-6.6 7.1-12.1zm-55.5 55.3q7.8-7.7 17.5-9.8 9.6-1.9 18.4 2.2l-4.3 11.9q-6.3-2.2-12.4-1.2-6.2 1.1-10.6 5.5-3.7 3.8-4.3 7.8-0.7 4 2.2 6.9 1.9 1.8 4 1.9 2.3 0.2 4.6-0.6 2.2-0.8 4.2-2l10.2-5.7q8.4-4.6 15.4-4.2 7 0.7 12.1 5.7 4.5 4.6 5.6 10.3 1.1 5.8-1.2 11.8-2.2 5.9-7.3 11.1-7 6.9-15.8 8.8-8.8 2.1-17.1-1.7l4.3-12q5.1 2.2 10.5 1 5.3-1 9.4-5 3.4-3.5 3.8-7.2 0.5-3.6-2.2-6.2-1.7-1.8-3.9-2.1-2-0.2-4.3 0.6-2.1 0.8-4.2 1.9l-10.6 5.8q-8.1 4.5-15.3 4-7.1-0.4-12.3-5.6-4.5-4.5-5.5-10.3-1-5.7 1.2-11.9 2.3-6.1 7.9-11.7z"/><path class="b" d="m592.9 39.1l-41-8.6 6.4-6.3 34.5 7.4 0.8-7.6-17.6-17.6 5.6-5.5 44 43.9-5.6 5.6-22-22 1.4 8.7 3.3 30.5-6.3 6.3zm-14.3 57.9q-3.2 3.2-6.7-0.2-1.7-1.8-1.6-3.6 0.1-1.8 1.4-3.1 3.2-3.2 6.7 0.3 3.4 3.4 0.2 6.6zm-39.6-45l24.4 24.3 8.7-7.4 3.7 3.7-13.5 13.5-28.8-28.7-11.1 10-3.7-3.7 26.4-26.4 3.7 3.7zm-36.7 36.7l38.2 38.1 8.7-7.4 3.6 3.7-13.5 13.5-42.5-42.4-11.2 9.9-3.7-3.6 26.4-26.5 3.7 3.7zm-36.9 37l38.2 38.1 8.6-7.4 3.7 3.7-13.6 13.5-42.4-42.4-11.2 9.9-3.7-3.7 26.4-26.4 3.7 3.7zm-65 59.3l5.4 5.3q-9 3.8-15.1 9.9-10.5 10.5-3.3 17.7 3.2 3.1 7 2.7 3.8-0.4 12.5-4.6 8.5-4 14.3-3.7 5.7 0.3 10.6 5.2 5.2 5.2 4.3 12-0.9 6.9-7.6 13.6-6.9 6.9-14.8 10.1l-3.1-6.8q8.2-3.5 13.2-8.5 8.8-8.8 2.5-15.1-3-3-6.8-2.9-3.9 0.1-12.2 4.1-10 4.8-15.3 4.4-5.3-0.3-9.7-4.7-5.8-5.8-4.9-13.3 0.8-7.4 8.5-15 8-8 14.5-10.4zm-64.5 61.5l5.9-5.9 21.8 14 12 7.9 0.2-0.2-8.1-12-13.7-21.8 5.6-5.7 39.8 26.3-4.9 4.8-19.3-13.3q-6.6-4.6-13.5-10.1l-0.2 0.2q4.6 6.4 8.7 12.7l13.4 21.4-5.8 5.8-21.2-13.5q-7.2-4.6-12.8-8.8l-0.2 0.2q6.4 8.2 10.1 13.6l13.2 19.4-4.7 4.7zm20.9 72.2q-3.2 3.2-6.6-0.2-1.8-1.7-1.7-3.6 0.1-1.8 1.4-3 3.2-3.3 6.7 0.2 3.4 3.4 0.2 6.6zm-39.5-45l24.3 24.4 8.8-7.5 3.7 3.7-13.6 13.6-28.7-28.7-11.2 9.9-3.7-3.6 26.4-26.4 3.7 3.7zm-51.2 51.5l-4.1-4.2q2.9-4.8 6.6-8.5 10.9-10.9 21.2-0.5l19.2 19.1 8-8 2.9 2.8-6.6 9.5 6.3 10.9-3.1 3.2-8.9-8.8-13.1 13.1-4.1-4.1 13.1-13.1-19.1-19.2q-5.9-5.8-11.7-0.1-2.8 2.8-6.6 7.9zm-10.8 65.4l-2.9-6.6q6.2-2.8 9.8-6.3 11.1-11.2-1.3-23.6-12.2-12.2-23.1-1.3-4.7 4.7-7.7 11.5l-4.8-4.8q2.1-5.9 8-11.7 7.7-7.7 16.4-7.7 8.6 0.2 16.8 8.3 8.5 8.5 8.5 17.2 0.1 8.8-7.8 16.7-5.4 5.4-11.9 8.3zm-69.1 5.4l5.5-5.5 21.3 21.3q7.8 7.8 15 0.6 9.2-9.2-2.8-21.2l-17.1-17.1 5.5-5.4 46.8 46.7-5.5 5.5-13.9-13.9-4.1-4.6-0.3 0.3q2 8.2-5 15.2-11.7 11.7-23.8-0.4z"/><path class="b" d="m317.6 500.9l41 8.6-6.3 6.3-34.5-7.4-0.8 7.6 17.6 17.5-5.6 5.6-44-43.9 5.6-5.6 22 22-1.4-8.7-3.3-30.5 6.2-6.3zm14.4-57.9q3.2-3.2 6.6 0.2 1.8 1.8 1.7 3.6-0.1 1.8-1.4 3.1-3.2 3.2-6.7-0.3-3.4-3.4-0.2-6.6zm39.6 45l-24.4-24.3-8.8 7.4-3.7-3.7 13.6-13.5 28.7 28.7 11.2-10 3.7 3.7-26.4 26.4-3.7-3.7zm36.7-36.7l-38.2-38.1-8.7 7.4-3.7-3.7 13.6-13.5 42.5 42.4 11.2-10 3.7 3.7-26.4 26.4-3.7-3.7zm36.9-36.9l-38.2-38.1-8.7 7.4-3.6-3.7 13.5-13.5 42.5 42.4 11.2-9.9 3.7 3.7-26.4 26.4-3.7-3.7zm65-59.3l-5.4-5.4q8.9-3.7 15-9.8 10.6-10.5 3.3-17.7-3.1-3.2-6.9-2.7-3.8 0.4-12.6 4.6-8.4 4-14.2 3.7-5.8-0.3-10.6-5.2-5.3-5.2-4.4-12 0.9-6.9 7.7-13.6 6.9-6.9 14.8-10.2l3 6.9q-8.1 3.5-13.1 8.5-8.9 8.8-2.6 15 3.1 3.1 6.9 3 3.9-0.1 12.2-4.1 10-4.8 15.3-4.4 5.3 0.3 9.7 4.7 5.8 5.8 4.9 13.3-0.9 7.4-8.5 15-8 8-14.5 10.4zm64.5-61.5l-5.9 5.9-21.9-14-11.9-7.9-0.2 0.2 8.1 12 13.7 21.8-5.7 5.7-39.7-26.3 4.9-4.8 19.3 13.3q6.6 4.6 13.5 10.1l0.2-0.2q-4.7-6.5-8.8-12.8l-13.3-21.3 5.8-5.8 21.2 13.5q7.1 4.6 12.7 8.8l0.2-0.2q-6.3-8.2-10-13.6l-13.2-19.4 4.7-4.7zm-20.9-72.2q3.2-3.2 6.6 0.2 1.7 1.7 1.6 3.6 0 1.7-1.3 3-3.3 3.2-6.7-0.2-3.4-3.4-0.2-6.6zm39.5 45l-24.4-24.4-8.7 7.5-3.7-3.7 13.6-13.6 28.7 28.7 11.2-10 3.7 3.7-26.4 26.4-3.7-3.7zm51.1-51.5l4.2 4.1q-3 4.9-6.6 8.6-10.9 10.9-21.3 0.5l-19.1-19.1-8.1 8-2.8-2.8 6.6-9.5-6.3-10.9 3.1-3.2 8.8 8.8 13.2-13.2 4.1 4.2-13.2 13.1 19.2 19.2q5.9 5.8 11.6 0 2.8-2.8 6.6-7.8zm10.9-65.5l2.9 6.7q-6.3 2.7-9.8 6.3-11.2 11.1 1.3 23.5 12.2 12.2 23 1.4 4.7-4.7 7.8-11.5l4.8 4.8q-2.2 5.9-8 11.7-7.8 7.7-16.4 7.6-8.7-0.1-16.8-8.2-8.5-8.5-8.5-17.3-0.1-8.7 7.8-16.6 5.4-5.4 11.9-8.4zm69-5.3l-5.4 5.5-21.3-21.3q-7.8-7.8-15-0.6-9.2 9.2 2.8 21.1l17.1 17.1-5.5 5.5-46.8-46.7 5.5-5.5 13.9 13.9 4.1 4.5 0.3-0.3q-2-8.1 5-15.1 11.7-11.7 23.8 0.4z"/></svg>