<svg version="1.2" xmlns="http://www.w3.org/2000/svg" viewBox="0 0 693 419" width="693" height="419"><style>.a{fill:#1c1e20}.b{fill:#0f0}</style><path class="a" d="m587.9 193.4c-17.1 17-31 31.1-31 31.1 14 5.6 24.9 19.2 26.4 34.4 2.4 18.3-9 37.2-26.4 43.7-5.5 2.3-11.4 3.1-17.2 3.6-3 0-52.9 0.1-64.7 0.1-66.4 66.4-85.7 85.8-85.7 85.8 0.2 0.1 1.2 0.3 1.3 0.1 0 0 0.3 0 0.6 0-2.8 0 133.1 0.1 130.4 0 48.2 1.6 90.1-11.4 120.8-50.5 43.1-55.2 32.7-136.4-22.8-179-1-0.9-6.3 5.7-31.7 30.7z"/><path class="a" d="m156 26.1c-24.7 0.6-50.3 6.1-71.5 19.3-76 46.2-82.8 153.8-13.3 209.2 0.2 0 1.4 1.1 1.8 1.3 48.2-48.2 62.2-62.2 62.2-62.2-42.3-18.2-31.9-77.6 13.9-81.4 5.1-0.6 53.8-0.3 67.9-0.4 66.5-66.5 85.7-85.8 85.7-85.8 5.4-0.2-160.5 0-146.7 0z"/><path class="a" d="m177.3 207.6q-10.3 0-18.9-4.9-8.5-4.9-13.5-13.3-5-8.5-5-19.2 0-10.8 5-19.1 5-8.5 13.5-13.2 8.4-4.9 18.9-4.9 10.5 0 18.8 4.9 8.5 4.7 13.4 13.2 5 8.3 5 19.1 0 10.9-5 19.3-5.1 8.4-13.5 13.3-8.4 4.8-18.7 4.8zm0-13.9q6.3 0 11.2-3 4.9-3 7.6-8.3 2.9-5.4 2.9-12.2 0-6.7-2.9-12-2.7-5.3-7.6-8.3-4.9-3-11.2-3-6.2 0-11.3 3-4.8 3-7.8 8.3-2.7 5.3-2.7 12 0 6.8 2.7 12.2 3 5.3 7.8 8.3 5.1 3 11.3 3zm85.6 13.9q-10.7 0-19-4.9-8.2-5-13.1-13.5-4.7-8.4-4.7-19.1 0-10.6 4.7-19 4.8-8.5 13.1-13.2 8.3-4.9 19-4.9 7.3 0 13.6 2.6 6.4 2.6 11 7 4.7 4.5 7 10.5l-13.1 6q-2.2-5.5-7.3-8.8-4.8-3.4-11.2-3.4-6 0-10.9 3-4.8 2.9-7.6 8.3-2.7 5.3-2.7 12 0 6.8 2.7 12.2 2.8 5.3 7.6 8.3 4.9 3 10.9 3 6.5 0 11.2-3.3 4.9-3.4 7.3-9.1l13.1 6.2q-2.1 5.7-6.9 10.3-4.6 4.5-10.9 7.1-6.4 2.7-13.8 2.7zm71.6 0q-8.1 0-14.2-3.6-6-3.7-9.5-10.1-3.3-6.6-3.3-15.2v-44.1h15v42.8q0 4.8 1.9 8.5 2 3.7 5.6 5.8 3.5 2 8.2 2 4.7 0 8.3-2.1 3.5-2.1 5.5-5.9 2.1-3.9 2.1-9v-42.1h14.8v71.4h-14.1v-14l1.6 1.9q-2.5 6.6-8.3 10.1-5.8 3.6-13.6 3.6zm66.8-1.6h-15v-99.9h15zm42.9 1.6q-8.1 0-14.2-3.6-6-3.7-9.5-10.2-3.3-6.6-3.3-15.1v-44.1h14.9v42.7q0 4.9 2 8.6 2 3.7 5.6 5.8 3.5 2 8.2 2 4.7 0 8.3-2.1 3.5-2.1 5.5-6 2.1-3.8 2.1-8.9v-42.1h14.8v71.4h-14.1v-14l1.6 1.8q-2.5 6.6-8.3 10.2-5.9 3.6-13.6 3.6zm78.2 0q-10.9 0-19.2-5.5-8.2-5.4-11.5-14.5l11.5-5.4q2.9 6.1 7.9 9.7 5.1 3.5 11.3 3.5 5.3 0 8.6-2.4 3.3-2.3 3.3-6.4 0-2.7-1.4-4.3-1.5-1.7-3.7-2.7-2.1-1.1-4.4-1.6l-11.2-3.2q-9.2-2.6-13.9-7.9-4.5-5.4-4.5-12.5 0-6.5 3.3-11.3 3.3-4.8 9.2-7.5 5.8-2.6 13-2.6 9.8 0 17.4 4.9 7.7 4.7 10.9 13.3l-11.5 5.4q-2.1-5.1-6.7-8.2-4.5-3-10.2-3-4.9 0-7.8 2.4-2.9 2.2-2.9 5.9 0 2.5 1.3 4.2 1.3 1.6 3.4 2.7 2.2 0.9 4.4 1.6l11.6 3.4q8.9 2.5 13.6 7.9 4.8 5.3 4.8 12.7 0 6.3-3.5 11.2-3.3 4.7-9.2 7.5-5.9 2.7-13.9 2.7z"/><path class="b" d="m85.3 275l22.9 35h-8.9l-19.1-29.7-6 4.9v24.8h-7.9v-62.1h7.9v31l5.2-7.1 19.2-23.9h8.9zm51.1-30.8q4.5 0 4.5 4.8 0 2.5-1.4 3.7-1.3 1.2-3.1 1.2-4.6 0-4.6-4.9 0-4.8 4.6-4.8zm-3.9 59.8v-34.5l-11.5-0.9v-5.2h19.2v40.6l15 0.8v5.2h-37.3v-5.2zm51.8 0v-53.9l-11.4-0.9v-5.2h19.2v60l14.9 0.9v5.2h-37.3v-5.2zm52.2 0v-54l-11.4-0.9v-5.2h19.2v60.1l14.9 0.8v5.2h-37.3v-5.2zm87.8 4v-7.6q8.9 3.7 17.6 3.7 14.8 0 14.8-10.2 0-4.4-3-6.8-3-2.4-12.1-5.6-8.8-3.1-12.7-7.4-3.8-4.4-3.8-11.2 0-7.4 5.4-11.6 5.5-4.2 15-4.2 9.7 0 17.7 3.3l-2.7 7q-8.2-3.3-15.3-3.3-12.5 0-12.5 8.8 0 4.4 2.8 7 2.8 2.6 11.5 5.7 10.5 3.7 13.9 7.7 3.6 3.9 3.6 10.2 0 8.1-5.9 12.8-5.9 4.6-16.7 4.6-11.3 0-17.6-2.9zm89 2.1h-8.3l-5.5-25.3-2.9-14h-0.3l-2.7 14.1-5.8 25.2h-8l-9.5-46.7h6.9l4.2 23.1q1.4 7.9 2.4 16.7h0.2q1.4-7.9 2.9-15.2l5.7-24.6h8.2l5.4 24.6q1.8 8.3 2.8 15.2h0.3q1.3-10.3 2.5-16.7l4.4-23.1h6.7zm36.3-65.8q4.5 0 4.5 4.8 0 2.5-1.4 3.7-1.3 1.2-3.1 1.2-4.6 0-4.6-4.9 0-4.8 4.6-4.8zm-4 59.8v-34.5l-11.4-0.9v-5.2h19.2v40.6l14.9 0.8v5.2h-37.3v-5.2zm72.6-0.3v5.9q-5.5 1.3-10.7 1.3-15.4 0-15.4-14.6v-27h-11.3v-4l11.3-2.1 3.3-12.2h4.4v12.5h18.6v5.8h-18.6v27q0 8.3 8.2 8.3 3.9 0 10.2-0.9zm53.9-38.6l-2.6 6.7q-6.4-2.4-11.4-2.4-15.7 0-15.7 17.5 0 17.3 15.3 17.3 6.7 0 13.6-2.6v6.8q-5.7 2.5-13.9 2.5-11 0-17-6.1-6-6.2-6-17.8 0-11.9 6.1-18.2 6.2-6.2 17.4-6.2 7.5 0 14.2 2.5zm52.6 45h-7.7v-30q0-11.1-10.2-11.1-13 0-13 16.9v24.2h-7.7v-66.1h7.7v19.6l-0.3 6.1h0.4q4.4-7.1 14.3-7.1 16.5 0 16.5 17z"/></svg>